<svg width="9" height="8" viewBox="0 0 9 8" fill="none" xmlns="http://www.w3.org/2000/svg">
<path d="M8.3179 0.142928C8.22443 0.0513147 8.09878 0 7.9679 0C7.83702 0 7.71136 0.0513147 7.6179 0.142928L2.8779 4.88293L1.3779 3.39293C1.33301 3.3451 1.27879 3.30698 1.21859 3.28092C1.1584 3.25485 1.0935 3.24141 1.0279 3.24141C0.962302 3.24141 0.897402 3.25485 0.837204 3.28092C0.777006 3.30698 0.722789 3.3451 0.677899 3.39293L0.147899 3.92293C0.101035 3.96941 0.0638379 4.02471 0.0384536 4.08564C0.0130692 4.14657 0 4.21192 0 4.27793C0 4.34393 0.0130692 4.40929 0.0384536 4.47022C0.0638379 4.53115 0.101035 4.58645 0.147899 4.63293L2.4979 7.00293C2.54279 7.05076 2.59701 7.08888 2.6572 7.11494C2.7174 7.141 2.7823 7.15445 2.8479 7.15445C2.9135 7.15445 2.9784 7.141 3.03859 7.11494C3.09879 7.08888 3.15301 7.05076 3.1979 7.00293L8.8179 1.38293C8.86476 1.33645 8.90196 1.28115 8.92734 1.22022C8.95273 1.15929 8.9658 1.09393 8.9658 1.02793C8.9658 0.961922 8.95273 0.896569 8.92734 0.83564C8.90196 0.77471 8.86476 0.71941 8.8179 0.672929L8.3179 0.142928Z" fill="#38A8FF"/>
</svg>
