<svg width="20" height="20" viewBox="0 0 20 20" fill="none" xmlns="http://www.w3.org/2000/svg">
<path d="M10 0C8.02219 0 6.08879 0.58649 4.4443 1.6853C2.79981 2.78412 1.51809 4.3459 0.761209 6.17316C0.00433284 8.00042 -0.1937 10.0111 0.192152 11.9509C0.578004 13.8907 1.53041 15.6725 2.92894 17.0711C4.32746 18.4696 6.10929 19.422 8.0491 19.8078C9.98891 20.1937 11.9996 19.9957 13.8268 19.2388C15.6541 18.4819 17.2159 17.2002 18.3147 15.5557C19.4135 13.9112 20 11.9778 20 10C20 8.68678 19.7413 7.38642 19.2388 6.17316C18.7362 4.95991 17.9997 3.85752 17.0711 2.92893C16.1425 2.00035 15.0401 1.26375 13.8268 0.761204C12.6136 0.258658 11.3132 0 10 0ZM10 18C8.41775 18 6.87103 17.5308 5.55544 16.6518C4.23985 15.7727 3.21447 14.5233 2.60897 13.0615C2.00347 11.5997 1.84504 9.99112 2.15372 8.43927C2.4624 6.88743 3.22433 5.46196 4.34315 4.34314C5.46197 3.22432 6.88743 2.4624 8.43928 2.15372C9.99113 1.84504 11.5997 2.00346 13.0615 2.60896C14.5233 3.21446 15.7727 4.23984 16.6518 5.55544C17.5308 6.87103 18 8.41775 18 10C18 12.1217 17.1571 14.1566 15.6569 15.6568C14.1566 17.1571 12.1217 18 10 18ZM13.82 6.49C13.7265 6.39838 13.6009 6.34707 13.47 6.34707C13.3391 6.34707 13.2135 6.39838 13.12 6.49L8.38 11.23L6.88 9.74C6.83511 9.69217 6.78089 9.65404 6.7207 9.62798C6.6605 9.60192 6.5956 9.58848 6.53 9.58848C6.46441 9.58848 6.3995 9.60192 6.33931 9.62798C6.27911 9.65404 6.22489 9.69217 6.18 9.74L5.65 10.27C5.60314 10.3165 5.56594 10.3718 5.54056 10.4327C5.51517 10.4936 5.5021 10.559 5.5021 10.625C5.5021 10.691 5.51517 10.7564 5.54056 10.8173C5.56594 10.8782 5.60314 10.9335 5.65 10.98L8 13.35C8.04489 13.3978 8.09911 13.4359 8.15931 13.462C8.21951 13.4881 8.28441 13.5015 8.35 13.5015C8.4156 13.5015 8.4805 13.4881 8.5407 13.462C8.60089 13.4359 8.65511 13.3978 8.7 13.35L14.32 7.73C14.3669 7.68352 14.4041 7.62822 14.4294 7.56729C14.4548 7.50636 14.4679 7.441 14.4679 7.375C14.4679 7.30899 14.4548 7.24364 14.4294 7.18271C14.4041 7.12178 14.3669 7.06648 14.32 7.02L13.82 6.49Z" fill="#38A8FF"/>
</svg>
