<svg width="20" height="20" viewBox="0 0 20 20" fill="none" xmlns="http://www.w3.org/2000/svg">
<path d="M10 -0.00012207C8.02219 -0.00012207 6.08879 0.586371 4.4443 1.68519C2.79981 2.78401 1.51809 4.34581 0.761209 6.17308C0.00433284 8.00035 -0.193701 10.011 0.192152 11.9509C0.578004 13.8907 1.53041 15.6725 2.92894 17.071C4.32746 18.4696 6.10929 19.422 8.0491 19.8078C9.98891 20.1937 11.9996 19.9957 13.8268 19.2388C15.6541 18.4819 17.2159 17.2002 18.3147 15.5557C19.4135 13.9112 20 11.9778 20 9.99994C20 8.68671 19.7413 7.38634 19.2388 6.17308C18.7363 4.95982 17.9997 3.85742 17.0711 2.92883C16.1425 2.00024 15.0401 1.26364 13.8268 0.761087C12.6136 0.258537 11.3132 -0.00012207 10 -0.00012207ZM10 18C8.41775 18 6.87104 17.5308 5.55544 16.6517C4.23985 15.7727 3.21447 14.5232 2.60897 13.0614C2.00347 11.5996 1.84504 9.99106 2.15372 8.43921C2.4624 6.88735 3.22433 5.46188 4.34315 4.34305C5.46197 3.22422 6.88743 2.46229 8.43928 2.15361C9.99113 1.84492 11.5997 2.00335 13.0615 2.60886C14.5233 3.21436 15.7727 4.23975 16.6518 5.55535C17.5308 6.87095 18 8.41768 18 9.99994C18 12.1217 17.1572 14.1565 15.6569 15.6568C14.1566 17.1571 12.1217 18 10 18ZM13.09 7.43992L12.56 6.90992C12.5151 6.86209 12.4609 6.82397 12.4007 6.7979C12.3405 6.77184 12.2756 6.7584 12.21 6.7584C12.1444 6.7584 12.0795 6.77184 12.0193 6.7979C11.9591 6.82397 11.9049 6.86209 11.86 6.90992L10 8.75993L8.14001 6.90992C8.09511 6.86209 8.0409 6.82397 7.9807 6.7979C7.9205 6.77184 7.8556 6.7584 7.79 6.7584C7.72441 6.7584 7.65951 6.77184 7.59931 6.7979C7.53911 6.82397 7.48489 6.86209 7.44 6.90992L6.91 7.43992C6.86217 7.48481 6.82405 7.53903 6.79799 7.59923C6.77193 7.65943 6.75849 7.72433 6.75849 7.78992C6.75849 7.85552 6.77193 7.92042 6.79799 7.98062C6.82405 8.04082 6.86217 8.09504 6.91 8.13993L8.76 9.99994L6.91 11.8599C6.86217 11.9048 6.82405 11.9591 6.79799 12.0193C6.77193 12.0795 6.75849 12.1444 6.75849 12.2099C6.75849 12.2755 6.77193 12.3404 6.79799 12.4006C6.82405 12.4608 6.86217 12.5151 6.91 12.56L7.44 13.09C7.48489 13.1378 7.53911 13.1759 7.59931 13.202C7.65951 13.228 7.72441 13.2415 7.79 13.2415C7.8556 13.2415 7.9205 13.228 7.9807 13.202C8.0409 13.1759 8.09511 13.1378 8.14001 13.09L10 11.2399L11.86 13.09C11.9049 13.1378 11.9591 13.1759 12.0193 13.202C12.0795 13.228 12.1444 13.2415 12.21 13.2415C12.2756 13.2415 12.3405 13.228 12.4007 13.202C12.4609 13.1759 12.5151 13.1378 12.56 13.09L13.09 12.56C13.1378 12.5151 13.176 12.4608 13.202 12.4006C13.2281 12.3404 13.2415 12.2755 13.2415 12.2099C13.2415 12.1444 13.2281 12.0795 13.202 12.0193C13.176 11.9591 13.1378 11.9048 13.09 11.8599L11.24 9.99994L13.09 8.13993C13.1378 8.09504 13.176 8.04082 13.202 7.98062C13.2281 7.92042 13.2415 7.85552 13.2415 7.78992C13.2415 7.72433 13.2281 7.65943 13.202 7.59923C13.176 7.53903 13.1378 7.48481 13.09 7.43992Z" fill="#F97067"/>
</svg>
