<svg width="445" height="180" viewBox="0 0 445 180" fill="none" xmlns="http://www.w3.org/2000/svg">
<circle cx="210.918" cy="90" r="90" fill="white"/>
<g filter="url(#filter0_d)">
<path d="M210.918 40C201.029 40 191.362 42.9324 183.139 48.4265C174.917 53.9206 168.508 61.7295 164.724 70.8658C160.94 80.0021 159.949 90.0555 161.879 99.7545C163.808 109.454 168.57 118.363 175.563 125.355C182.555 132.348 191.464 137.11 201.163 139.039C210.863 140.968 220.916 139.978 230.052 136.194C239.188 132.41 246.997 126.001 252.491 117.778C257.985 109.556 260.918 99.889 260.918 90C260.918 83.4339 259.625 76.9321 257.112 70.8658C254.599 64.7995 250.916 59.2876 246.273 54.6447C241.63 50.0017 236.118 46.3188 230.052 43.806C223.986 41.2933 217.484 40 210.918 40ZM232.668 78.65L204.568 106.75C204.344 106.989 204.072 107.18 203.771 107.31C203.47 107.44 203.146 107.508 202.818 107.508C202.49 107.508 202.165 107.44 201.865 107.31C201.564 107.18 201.292 106.989 201.068 106.75L189.168 95C188.934 94.7676 188.748 94.4911 188.621 94.1864C188.494 93.8818 188.428 93.555 188.428 93.225C188.428 92.895 188.494 92.5682 188.621 92.2635C188.748 91.9589 188.934 91.6824 189.168 91.45L191.818 88.8C192.042 88.5608 192.314 88.3702 192.615 88.2399C192.915 88.1096 193.24 88.0424 193.568 88.0424C193.896 88.0424 194.22 88.1096 194.521 88.2399C194.822 88.3702 195.094 88.5608 195.318 88.8L202.818 96.25L226.518 72.55C226.985 72.0919 227.614 71.8353 228.268 71.8353C228.922 71.8353 229.551 72.0919 230.018 72.55L232.668 75.2C233.111 75.6649 233.358 76.2826 233.358 76.925C233.358 77.5673 233.111 78.185 232.668 78.65Z" fill="#C2EB9C"/>
</g>
<path fill-rule="evenodd" clip-rule="evenodd" d="M333.295 9.9918C333.295 11.0918 332.403 11.9836 331.303 11.9836C330.203 11.9836 329.311 11.0918 329.311 9.9918C329.311 8.89176 330.203 8 331.303 8C332.403 8 333.295 8.89176 333.295 9.9918ZM116.852 29.2459C116.852 30.7126 115.663 31.9016 114.197 31.9016C112.73 31.9016 111.541 30.7126 111.541 29.2459C111.541 27.7792 112.73 26.5902 114.197 26.5902C115.663 26.5902 116.852 27.7792 116.852 29.2459ZM61.082 48.5C61.082 51.8001 58.4067 54.4754 55.1066 54.4754C51.8064 54.4754 49.1311 51.8001 49.1311 48.5C49.1311 45.1999 51.8064 42.5246 55.1066 42.5246C58.4067 42.5246 61.082 45.1999 61.082 48.5ZM389.066 110.91C389.066 114.21 386.39 116.885 383.09 116.885C379.79 116.885 377.115 114.21 377.115 110.91C377.115 107.61 379.79 104.934 383.09 104.934C386.39 104.934 389.066 107.61 389.066 110.91ZM374.459 163.361C376.659 163.361 378.443 161.577 378.443 159.377C378.443 157.177 376.659 155.393 374.459 155.393C372.259 155.393 370.475 157.177 370.475 159.377C370.475 161.577 372.259 163.361 374.459 163.361ZM422.262 63.7705C422.262 65.9706 420.479 67.7541 418.279 67.7541C416.079 67.7541 414.295 65.9706 414.295 63.7705C414.295 61.5704 416.079 59.7869 418.279 59.7869C420.479 59.7869 422.262 61.5704 422.262 63.7705ZM49.1311 167.344C51.3312 167.344 53.1148 165.561 53.1148 163.361C53.1148 161.161 51.3312 159.377 49.1311 159.377C46.9311 159.377 45.1475 161.161 45.1475 163.361C45.1475 165.561 46.9311 167.344 49.1311 167.344ZM11.9508 69.082C11.9508 70.5487 10.7618 71.7377 9.29508 71.7377C7.82836 71.7377 6.63934 70.5487 6.63934 69.082C6.63934 67.6152 7.82836 66.4262 9.29508 66.4262C10.7618 66.4262 11.9508 67.6152 11.9508 69.082ZM39.8361 119.541C41.3028 119.541 42.4918 118.352 42.4918 116.885C42.4918 115.419 41.3028 114.23 39.8361 114.23C38.3693 114.23 37.1803 115.419 37.1803 116.885C37.1803 118.352 38.3693 119.541 39.8361 119.541ZM325.705 66.7541C327.172 66.7541 328.361 65.5651 328.361 64.0984C328.361 62.6316 327.172 61.4426 325.705 61.4426C324.238 61.4426 323.049 62.6316 323.049 64.0984C323.049 65.5651 324.238 66.7541 325.705 66.7541ZM369.148 80.3689C369.148 81.4689 368.256 82.3607 367.156 82.3607C366.056 82.3607 365.164 81.4689 365.164 80.3689C365.164 79.2688 366.056 78.3771 367.156 78.3771C368.256 78.3771 369.148 79.2688 369.148 80.3689ZM360.516 35.8852C361.616 35.8852 362.508 34.9935 362.508 33.8934C362.508 32.7934 361.616 31.9016 360.516 31.9016C359.416 31.9016 358.525 32.7934 358.525 33.8934C358.525 34.9935 359.416 35.8852 360.516 35.8852ZM90.2951 133.484C90.2951 134.584 89.4033 135.475 88.3033 135.475C87.2032 135.475 86.3115 134.584 86.3115 133.484C86.3115 132.384 87.2032 131.492 88.3033 131.492C89.4033 131.492 90.2951 132.384 90.2951 133.484ZM122.828 170C123.928 170 124.82 169.108 124.82 168.008C124.82 166.908 123.928 166.016 122.828 166.016C121.728 166.016 120.836 166.908 120.836 168.008C120.836 169.108 121.728 170 122.828 170ZM318.689 142.115C319.422 142.115 320.016 141.52 320.016 140.787C320.016 140.054 319.422 139.459 318.689 139.459C317.955 139.459 317.361 140.054 317.361 140.787C317.361 141.52 317.955 142.115 318.689 142.115ZM335.967 107.197C335.967 108.301 335.072 109.197 333.967 109.197C332.863 109.197 331.967 108.301 331.967 107.197C331.967 106.092 332.863 105.197 333.967 105.197C335.072 105.197 335.967 106.092 335.967 107.197ZM443.508 107.59C444.242 107.59 444.836 106.996 444.836 106.262C444.836 105.529 444.242 104.934 443.508 104.934C442.775 104.934 442.18 105.529 442.18 106.262C442.18 106.996 442.775 107.59 443.508 107.59ZM86.3115 83.6885C86.3115 84.4219 85.717 85.0164 84.9836 85.0164C84.2502 85.0164 83.6557 84.4219 83.6557 83.6885C83.6557 82.9552 84.2502 82.3607 84.9836 82.3607C85.717 82.3607 86.3115 82.9552 86.3115 83.6885ZM1.32787 152.738C2.06123 152.738 2.65574 152.143 2.65574 151.41C2.65574 150.676 2.06123 150.082 1.32787 150.082C0.594507 150.082 0 150.676 0 151.41C0 152.143 0.594507 152.738 1.32787 152.738ZM6.63934 35.8852C6.63934 36.6186 6.04484 37.2131 5.31148 37.2131C4.57811 37.2131 3.98361 36.6186 3.98361 35.8852C3.98361 35.1519 4.57811 34.5574 5.31148 34.5574C6.04484 34.5574 6.63934 35.1519 6.63934 35.8852ZM75.6885 23.9344C76.4219 23.9344 77.0164 23.3399 77.0164 22.6066C77.0164 21.8732 76.4219 21.2787 75.6885 21.2787C74.9552 21.2787 74.3606 21.8732 74.3606 22.6066C74.3606 23.3399 74.9552 23.9344 75.6885 23.9344Z" fill="#CCEDF9"/>
<defs>
<filter id="filter0_d" x="146.918" y="30" width="128" height="128" filterUnits="userSpaceOnUse" color-interpolation-filters="sRGB">
<feFlood flood-opacity="0" result="BackgroundImageFix"/>
<feColorMatrix in="SourceAlpha" type="matrix" values="0 0 0 0 0 0 0 0 0 0 0 0 0 0 0 0 0 0 127 0"/>
<feOffset dy="4"/>
<feGaussianBlur stdDeviation="7"/>
<feColorMatrix type="matrix" values="0 0 0 0 0.811765 0 0 0 0 0.905882 0 0 0 0 0.721569 0 0 0 0.3 0"/>
<feBlend mode="normal" in2="BackgroundImageFix" result="effect1_dropShadow"/>
<feBlend mode="normal" in="SourceGraphic" in2="effect1_dropShadow" result="shape"/>
</filter>
</defs>
</svg>
