<svg width="205" height="134" viewBox="0 0 205 134" fill="none" xmlns="http://www.w3.org/2000/svg">
<g clip-path="url(#clip0)">
<path d="M191.216 118.061H189.062C188.457 118.061 187.919 118.149 187.919 118.753V122.601C187.919 123.205 188.452 124.107 189.062 124.107H191.766V131.801H190.161C189.556 131.801 189.062 132.296 189.062 132.901C189.062 133.505 189.556 134 190.161 134H203.901C204.505 134 205 133.505 205 132.901C205 132.296 204.505 131.801 203.901 131.801H193.964V124.107H197.855C198.46 124.107 198.91 123.211 198.91 122.601V118.753C198.91 118.149 198.46 118.061 197.855 118.061H193.414V116.555C193.964 116.555 194.536 116.263 194.536 115.659C194.536 115.054 194.063 114.763 193.458 114.763H192.359C191.755 114.763 191.216 114.851 191.216 115.455V118.061ZM192.359 121.359C192.964 121.359 193.458 120.809 193.458 120.259H196.712V121.908H190.117V120.259H191.26C191.26 120.809 191.755 121.359 192.359 121.359Z" fill="#CEEAF8"/>
<path d="M8.19999 120.325V131.802H7.14477C6.54021 131.802 6.04557 132.296 6.04557 132.901C6.04557 133.505 6.54021 134 7.14477 134H26.3807C26.9852 134 27.4799 133.505 27.4799 132.901C27.4799 132.296 26.9852 131.802 26.3807 131.802H24.1383V122.216C27.4359 121.699 29.9915 118.847 29.9915 115.401C29.9915 111.592 26.9028 108.492 23.0996 108.492C20.8023 108.492 18.7688 109.624 17.5157 111.361C17.087 107.244 13.6025 104.023 9.37064 104.023C4.85294 104.023 1.15964 107.7 1.15964 112.213C1.15415 116.351 4.35281 119.77 8.19999 120.325ZM23.1051 110.696C25.6992 110.696 27.7877 112.806 27.7877 115.406C27.7877 117.632 26.3312 119.495 24.1328 119.984V118.797L27.0292 115.857C27.4524 115.423 27.4579 114.725 27.0237 114.301C26.5895 113.878 25.8751 113.884 25.4519 114.318L24.1328 115.648V112.707C24.1328 112.103 23.6382 111.608 23.0336 111.608C22.4291 111.608 21.9344 112.103 21.9344 112.707V115.593L20.8407 114.422C20.423 113.983 19.7361 113.966 19.2964 114.384C18.8567 114.801 18.8237 115.499 19.2414 115.939L21.9344 118.792V119.979C19.7361 119.473 18.373 117.621 18.373 115.412C18.3785 112.812 20.511 110.696 23.1051 110.696ZM16.2626 116.555C16.7517 119.451 19.1919 121.732 21.9399 122.21V131.802H10.3984V120.331C13.1464 120.006 14.993 118.577 16.2626 116.555ZM9.37064 106.227C12.6737 106.227 15.3393 108.915 15.3393 112.218C15.3393 115.159 13.1464 117.605 10.3984 118.11V115.565L14.1576 112.081C14.6028 111.669 14.6358 110.971 14.2236 110.525C13.8114 110.08 13.0969 110.058 12.6517 110.47L10.3984 112.559V108.865C10.3984 108.261 9.90375 107.766 9.29919 107.766C8.69463 107.766 8.19999 108.261 8.19999 108.865V112.482L6.1445 110.454C5.71031 110.031 5.02332 110.042 4.60013 110.476C4.17694 110.91 4.16594 111.608 4.60013 112.031L8.19999 115.56V118.116C5.452 117.588 3.35804 115.153 3.35804 112.235C3.35804 108.915 6.06755 106.227 9.37064 106.227Z" fill="#CEEAF8"/>
<path d="M152.788 134H166.528C167.133 134 167.627 133.505 167.627 132.901C167.627 132.296 167.133 131.802 166.528 131.802H152.788C152.184 131.802 151.689 132.296 151.689 132.901C151.689 133.505 152.184 134 152.788 134Z" fill="#CEEAF8"/>
<path d="M135.734 81.4003C135.729 81.4388 135.707 81.4718 135.707 81.5103V111.46H132.453C131.849 111.46 131.31 111.548 131.31 112.152V116.549C131.31 117.154 131.843 118.055 132.453 118.055H172.574C173.178 118.055 173.629 117.159 173.629 116.549V112.152C173.629 111.548 173.178 111.46 172.574 111.46H170.331V81.5103C170.331 81.4718 170.353 81.4333 170.348 81.4003C170.331 81.2519 168.688 66.7802 153.382 66.7802C153.266 66.7802 153.162 66.8021 153.058 66.8351C152.953 66.8021 152.838 66.7802 152.722 66.7802C137.416 66.7802 135.751 81.2574 135.734 81.4003ZM137.905 83.434H145.599V91.6784H137.905V83.434ZM137.905 93.877H145.599V102.121H137.905V93.877ZM137.905 104.32H145.599V111.465H137.905V104.32ZM171.431 113.664V115.862H133.508V113.664H171.431ZM157.691 93.877V102.121H147.798V93.877H157.691ZM147.798 91.6784V83.434H157.691V91.6784H147.798ZM157.691 104.32V111.465H147.798V104.32H157.691ZM168.133 104.32V111.465H159.889V104.32H168.133ZM159.889 102.121V93.877H168.133V102.121H159.889ZM168.133 91.6784H159.889V83.434H168.133V91.6784ZM152.733 69.182C152.849 69.182 152.959 69.0556 153.063 69.0226C153.167 69.0556 153.277 69.2315 153.393 69.2315C164.89 69.2315 167.517 78.4873 168.056 81.2354H138.065C138.592 78.4873 141.197 69.182 152.733 69.182Z" fill="#CEEAF8"/>
<path d="M71.1454 22.947C71.1015 22.9415 71.0575 22.9305 71.008 22.9305C61.6374 22.9305 60.104 31.0486 59.9281 32.2358C59.9281 32.2468 59.9226 32.2578 59.9226 32.2688C59.9116 32.3347 59.9062 32.3732 59.9062 32.3787C59.9062 32.4007 59.9062 32.4172 59.9007 32.4392C59.9007 32.4447 59.9007 32.4556 59.9007 32.4611L59.8787 32.4666C59.8787 32.4721 59.8567 32.4776 59.8567 32.4831V52.2479C59.8567 52.8524 60.3898 53.7538 60.9998 53.7538H81.335C81.9395 53.7538 82.3902 52.8579 82.3902 52.2479V32.4886C82.3902 32.4831 82.4122 32.4776 82.4122 32.4721L82.4232 32.4666C82.4232 32.4556 82.4287 32.4501 82.4232 32.4447C82.4232 32.4227 82.4232 32.4007 82.4232 32.3787C82.4232 32.3732 82.4177 32.3347 82.4122 32.2798C82.4122 32.2633 82.4122 32.2523 82.4067 32.2358C82.2308 31.0706 80.6535 22.936 71.2718 22.936C71.2334 22.9305 71.1894 22.9415 71.1454 22.947ZM66.4574 51.5553H62.0606V47.1583H66.4574V51.5553ZM66.4574 44.9597H62.0606V41.1123H66.4574V44.9597ZM66.4574 38.9138H62.0606V33.9671H66.4574V38.9138ZM74.1517 51.5553H68.6557V47.1583H74.1517V51.5553ZM74.1517 44.9597H68.6557V41.1123H74.1517V44.9597ZM74.1517 38.9138H68.6557V33.9671H74.1517V38.9138ZM80.1973 51.5553H76.3501V47.1583H80.1973V51.5553ZM80.1973 44.9597H76.3501V41.1123H80.1973V44.9597ZM80.1973 38.9138H76.3501V33.9671H80.1973V38.9138ZM79.983 31.7686H62.3519C62.9454 29.5701 64.8855 25.3324 71.0135 25.3324C71.0575 25.3324 71.107 25.2225 71.1509 25.217C71.1949 25.2225 71.2389 25.3819 71.2883 25.3819C77.3669 25.3819 79.3564 29.5701 79.983 31.7686Z" fill="#CEEAF8"/>
<path d="M157.691 43.8605C157.691 43.2559 157.196 42.7612 156.591 42.7612H148.897C148.292 42.7612 147.798 43.2559 147.798 43.8605V58.7005C147.798 59.3051 148.292 59.7998 148.897 59.7998H156.591C157.196 59.7998 157.691 59.3051 157.691 58.7005V43.8605ZM149.996 44.9598H155.492V51.0057H149.996V44.9598ZM149.996 53.2042H155.492V57.6013H149.996V53.2042Z" fill="#CEEAF8"/>
<path d="M116.471 86.1821C116.471 85.5776 115.976 85.0829 115.372 85.0829H103.28C102.676 85.0829 102.181 85.5776 102.181 86.1821V95.5259C102.181 96.1305 102.676 96.6251 103.28 96.6251H115.372C115.976 96.6251 116.471 96.1305 116.471 95.5259V86.1821ZM104.38 87.2814H114.272V90.0296H104.38V87.2814ZM104.38 92.2281H114.272V94.4266H104.38V92.2281Z" fill="#CEEAF8"/>
<path d="M31.3271 134H42.3191C42.9236 134 43.4182 133.505 43.4182 132.901C43.4182 132.296 42.9236 131.802 42.3191 131.802H32.3823V120.259H67.007V122.458H63.2038C62.5992 122.458 62.0606 122.546 62.0606 123.15V126.855H58.807C58.2024 126.855 57.6638 126.943 57.6638 127.547V131.802H49.4638C48.8593 131.802 48.3646 132.296 48.3646 132.901C48.3646 133.505 48.8593 134 49.4638 134H79.6917C80.2963 134 80.7909 133.505 80.7909 132.901C80.7909 132.296 80.2963 131.802 79.6917 131.802H59.8622V129.053H63.2038H93.9813H97.2349V131.802H85.1877C84.5831 131.802 84.0885 132.296 84.0885 132.901C84.0885 133.505 84.5831 134 85.1877 134H147.292C147.897 134 148.391 133.505 148.391 132.901C148.391 132.296 147.897 131.802 147.292 131.802H123.066V54.6773L152.629 26.2339L182.423 54.6828V131.802H172.024C171.42 131.802 170.925 132.296 170.925 132.901C170.925 133.505 171.42 134 172.024 134H185.764C186.369 134 186.863 133.505 186.863 132.901C186.863 132.296 186.369 131.802 185.764 131.802H184.621V59.7999H190.161C190.765 59.7999 191.216 58.904 191.216 58.2939V54.0177C191.216 53.7264 191.123 53.4461 190.919 53.2428L184.407 46.7187C184.401 46.6527 184.374 46.5867 184.352 46.5208L179.119 28.5039V3.88042C179.119 3.27583 178.669 3.18789 178.064 3.18789H163.775C163.17 3.18789 162.632 3.27583 162.632 3.88042V19.1272H156.438L153.558 16.0438C153.547 16.0328 153.53 15.9228 153.514 15.9118C153.475 15.8734 153.431 15.7964 153.382 15.7634C153.338 15.7305 153.288 15.6755 153.239 15.6535C153.222 15.648 153.211 15.6205 153.195 15.615C153.162 15.604 153.129 15.5931 153.096 15.5821C153.041 15.5656 152.986 15.5436 152.931 15.5381C152.882 15.5326 152.832 15.5271 152.777 15.5271C152.722 15.5271 152.667 15.5271 152.612 15.5326C152.557 15.5381 152.508 15.5546 152.453 15.5711C152.42 15.5821 152.387 15.5821 152.354 15.5986C152.338 15.604 152.327 15.6205 152.31 15.626C152.261 15.648 152.217 15.681 152.167 15.714C152.123 15.7415 152.079 15.7744 152.035 15.8074C152.024 15.8184 152.008 16.0273 151.991 16.0383L148.562 19.6713H89.0404L72.9866 0.483702C72.7668 0.225376 72.4535 2.71163e-05 72.1402 2.71163e-05C71.8215 -0.00546919 71.5082 0.0714791 71.2884 0.329806L42.5609 33.8848C42.3905 34.0826 42.2751 34.3135 42.2751 34.5718V39.0568C42.2751 39.6614 42.8082 40.5628 43.4182 40.5628H48.3207V57.7333L30.5851 76.2173C30.2829 76.5361 30.2059 77.2067 30.3763 77.6134C30.5467 78.0201 30.9589 78.4818 31.3985 78.4818H32.3713L34.3004 86.2371C34.3499 86.446 34.5807 86.4185 34.5807 86.5614V108.519C34.5807 108.673 34.229 109.096 34.1685 109.366L32.2614 118.061H31.3271C30.7225 118.061 30.1839 118.149 30.1839 118.753V132.494C30.1839 133.104 30.7225 134 31.3271 134ZM169.232 5.38641H176.927V20.908L176.547 19.7208C176.41 19.2481 176.003 19.1272 175.514 19.1272H169.232V5.38641ZM164.835 5.38641H167.034V19.1272H164.835V5.38641ZM174.684 21.3257L178.345 33.9672H175.322C174.717 33.9672 174.223 34.4619 174.223 35.0665C174.223 35.6711 174.717 36.1657 175.322 36.1657H178.982L181.23 43.9265L166.33 29.0205H167.627C168.232 29.0205 168.727 28.5259 168.727 27.9213C168.727 27.3167 168.232 26.822 167.627 26.822H164.132L158.641 21.3257H174.684ZM153.843 19.2756L189.018 54.4794V57.6068H184.621V54.4959C184.621 54.0947 184.681 53.6275 184.352 53.3142L153.843 24.1288V19.2756ZM41.1759 108.904C41.1759 108.547 40.6648 108.717 40.2471 108.717H40.0767V104.32H41.1759V108.904ZM36.2515 85.0829L34.6357 78.4873H41.0165L39.4996 85.0829H36.2515ZM37.8783 87.2814V108.717H36.7791V87.2814H37.8783ZM46.6719 118.061H43.3743V104.32H46.6719V118.061ZM51.6182 118.061H48.8703V104.32H51.6182V118.061ZM57.6638 118.061H53.8166V104.32H57.6638V118.061ZM60.4118 108.602C60.4118 108.75 60.126 108.942 60.0766 109.168L59.8622 110.124V104.32H60.4118V108.602ZM60.4118 102.121H40.0767V87.2814H40.3735C40.8846 87.2814 41.3298 86.9296 41.4452 86.4295L43.2699 78.4873H58.3014L60.2304 86.2426C60.2689 86.3965 60.4118 86.336 60.4118 86.4515V102.121ZM60.4668 118.061L62.0716 110.916H65.2922L66.8476 118.061H60.4668ZM62.1815 85.0829L60.5657 78.4873H66.9465L65.4296 85.0829H62.1815ZM63.7094 87.2814V108.717H62.6102V87.2814H63.7094ZM66.1826 108.717H65.9078V87.2814H66.3035C66.8146 87.2814 67.2598 86.9296 67.3752 86.4295L69.1999 78.4873H88.7216L90.6507 86.2426C90.6562 86.2591 90.6452 86.0667 90.6452 86.0832V108.827C90.6452 108.931 90.5518 109.25 90.5243 109.377L88.6227 118.066H87.3476V87.9794C87.3476 87.3748 86.8969 87.2869 86.2924 87.2869H70.9036C70.2991 87.2869 69.7605 87.3748 69.7605 87.9794V118.066H69.101L67.2598 109.591C67.1444 109.08 66.6992 108.717 66.1826 108.717ZM85.1437 93.3273V118.061H71.9534V93.3273H85.1437ZM71.9534 91.1288V89.4799H85.1437V91.1288H71.9534ZM88.5622 120.259L88.6172 122.458H69.2054V120.259H88.5622ZM92.8381 126.855H64.259V124.656H68.1502H89.5845H89.7438H92.8381V126.855ZM120.868 131.802H99.4333V127.547C99.4333 126.943 98.9826 126.855 98.378 126.855H95.0365V123.15C95.0365 122.546 94.5858 122.458 93.9813 122.458H90.8156L90.7606 120.259H120.868V131.802ZM95.8499 85.0829H92.6018L90.9859 78.4873H97.3668L95.8499 85.0829ZM96.6853 104.32H98.3341V112.081L97.6251 109.151C97.5152 108.701 97.2349 108.376 96.6853 108.321V104.32ZM94.4869 87.2814V108.717H92.8381V87.2814H94.4869ZM92.4918 110.916H95.7345L97.4712 118.061H90.8705L92.4918 110.916ZM100.532 118.061V104.32H103.83V118.061H100.532ZM106.028 118.061V104.32H109.326V118.061H106.028ZM111.524 118.061V104.32H114.272V118.061H111.524ZM120.868 118.061H116.471V104.32H120.868V118.061ZM120.868 102.121H96.6853V86.8747C97.2349 86.8747 97.6581 86.7208 97.7735 86.2261L99.6201 78.4873H120.868V102.121ZM151.645 19.2756V24.1343L121.203 53.4241C120.988 53.633 120.868 53.9188 120.868 54.2156V57.6068H116.471V54.4794L151.645 19.2756ZM146.385 21.8753L131.008 37.265H126.408C125.803 37.265 125.308 37.7597 125.308 38.3643C125.308 38.9689 125.803 39.4635 126.408 39.4635H128.809L121.494 46.7846C121.324 46.6747 121.126 46.6087 120.906 46.6087H116.509C115.905 46.6087 115.41 47.1034 115.41 47.708C115.41 48.3126 115.905 48.8073 116.509 48.8073H119.472L114.613 53.4461C114.404 53.655 114.272 53.7319 114.272 54.0232V57.6013H95.5861V40.5628H100.576C101.181 40.5628 101.632 39.6669 101.632 39.0568V34.5718C101.632 34.3135 101.56 34.264 101.395 34.0661L96.0422 27.9213H97.2788C97.8834 27.9213 98.378 27.4266 98.378 26.822C98.378 26.2174 97.8834 25.7228 97.2788 25.7228H94.1846L90.9255 21.8753H146.385ZM44.4735 38.3643V34.9785L72.0853 2.67673L99.4333 34.9785V38.3698H95.5861V34.5773C95.5861 34.319 95.5146 34.0661 95.3498 33.8683L72.9207 7.16721C72.6843 6.8869 72.3381 6.75499 71.9973 6.78247C71.6511 6.74949 71.2993 6.88141 71.0575 7.16721L48.601 33.8628C48.4361 34.0607 48.3207 34.3135 48.3207 34.5718V38.3643H44.4735ZM93.3877 34.973V57.6013H50.5191V34.973L71.9534 9.46467L93.3877 34.973ZM49.8211 59.7999H115.416H120.868V62.548H47.1775L49.8211 59.7999ZM33.9817 76.2888L39.2963 70.754C39.3842 70.776 39.4776 70.7925 39.5711 70.7925H45.067C45.6716 70.7925 46.1662 70.2978 46.1662 69.6932C46.1662 69.0886 45.6716 68.594 45.067 68.594H41.3682L45.067 64.7466H120.868V66.3954H116.515C115.91 66.3954 115.416 66.8901 115.416 67.4947C115.416 68.0993 115.91 68.594 116.515 68.594H120.868V76.2888H33.9817ZM36.1416 110.916H39.3842L41.0989 118.061H34.5148L36.1416 110.916Z" fill="#CEEAF8"/>
<path d="M108.82 33.9672H114.866C115.471 33.9672 115.965 33.4725 115.965 32.8679C115.965 32.2633 115.471 31.7687 114.866 31.7687H108.82C108.216 31.7687 107.721 32.2633 107.721 32.8679C107.721 33.4725 108.216 33.9672 108.82 33.9672Z" fill="#CEEAF8"/>
<path d="M98.378 45.5094C98.378 46.114 98.8727 46.6087 99.4772 46.6087H102.775C103.379 46.6087 103.874 46.114 103.874 45.5094C103.874 44.9048 103.379 44.4102 102.775 44.4102H99.4772C98.8727 44.4102 98.378 44.9048 98.378 45.5094Z" fill="#CEEAF8"/>
<path d="M128.606 28.4709H134.651C135.256 28.4709 135.751 27.9762 135.751 27.3716C135.751 26.767 135.256 26.2723 134.651 26.2723H128.606C128.001 26.2723 127.507 26.767 127.507 27.3716C127.507 27.9762 128.001 28.4709 128.606 28.4709Z" fill="#CEEAF8"/>
<path d="M51.1126 71.8917H48.3646C47.76 71.8917 47.2654 72.3864 47.2654 72.991C47.2654 73.5956 47.76 74.0902 48.3646 74.0902H51.1126C51.7172 74.0902 52.2118 73.5956 52.2118 72.991C52.2118 72.3864 51.7172 71.8917 51.1126 71.8917Z" fill="#CEEAF8"/>
<path d="M63.7533 67.4946H58.807C58.2024 67.4946 57.7078 67.9893 57.7078 68.5939C57.7078 69.1985 58.2024 69.6932 58.807 69.6932H63.7533C64.3579 69.6932 64.8525 69.1985 64.8525 68.5939C64.8525 67.9893 64.3579 67.4946 63.7533 67.4946Z" fill="#CEEAF8"/>
<path d="M76.9437 71.8917H71.9973C71.3928 71.8917 70.8981 72.3864 70.8981 72.991C70.8981 73.5956 71.3928 74.0902 71.9973 74.0902H76.9437C77.5483 74.0902 78.0429 73.5956 78.0429 72.991C78.0429 72.3864 77.5483 71.8917 76.9437 71.8917Z" fill="#CEEAF8"/>
<path d="M85.1877 66.3954H79.6917C79.0871 66.3954 78.5925 66.8901 78.5925 67.4946C78.5925 68.0992 79.0871 68.5939 79.6917 68.5939H85.1877C85.7922 68.5939 86.2869 68.0992 86.2869 67.4946C86.2869 66.8901 85.7922 66.3954 85.1877 66.3954Z" fill="#CEEAF8"/>
<path d="M92.3324 66.3954H90.134C89.5295 66.3954 89.0349 66.8901 89.0349 67.4946C89.0349 68.0992 89.5295 68.5939 90.134 68.5939H92.3324C92.937 68.5939 93.4316 68.0992 93.4316 67.4946C93.4316 66.8901 92.937 66.3954 92.3324 66.3954Z" fill="#CEEAF8"/>
<path d="M99.4772 72.4414H97.2788C96.6743 72.4414 96.1796 72.9361 96.1796 73.5407C96.1796 74.1453 96.6743 74.6399 97.2788 74.6399H99.4772C100.082 74.6399 100.576 74.1453 100.576 73.5407C100.576 72.9361 100.082 72.4414 99.4772 72.4414Z" fill="#CEEAF8"/>
<path d="M74.7013 108.31C75.3059 108.31 75.8005 107.816 75.8005 107.211V102.814C75.8005 102.209 75.3059 101.715 74.7013 101.715C74.0968 101.715 73.6021 102.209 73.6021 102.814V107.211C73.6021 107.821 74.0968 108.31 74.7013 108.31Z" fill="#CEEAF8"/>
<path d="M1.0992 134H3.84719C4.45174 134 4.94638 133.505 4.94638 132.901C4.94638 132.296 4.45174 131.802 3.84719 131.802H1.0992C0.494638 131.802 0 132.296 0 132.901C0 133.505 0.494638 134 1.0992 134Z" fill="#CEEAF8"/>
</g>
<defs>
<clipPath id="clip0">
<rect width="205" height="134" fill="white"/>
</clipPath>
</defs>
</svg>
