<svg width="80" height="80" viewBox="0 0 80 80" fill="none" xmlns="http://www.w3.org/2000/svg">
<g clip-path="url(#clip0)">
<path fill="#38A8FF" d="M79.8555 50.2872L75.6427 38.8339C75.2844 37.8597 74.3289 37.237 73.292 37.3041L69.2294 37.5661L67.425 33.9167C67.0056 33.0686 66.1178 32.5558 65.1731 32.6167L60.2592 32.9336L49.4875 26.7145C49.8767 23.5622 49.4223 20.3803 48.1481 17.4186C46.6102 13.8437 44.0112 10.9231 40.6325 8.97234C37.048 6.90281 32.8563 6.13609 28.7822 6.79563C26.5555 6.43484 24.242 6.48984 21.9578 7.00938C21.4181 6.88656 20.8692 6.78797 20.3123 6.71516V2.34375C20.3123 1.04937 19.263 0 17.9686 0C16.6742 0 15.6248 1.04937 15.6248 2.34375V6.71531C6.82047 7.86734 0 15.4175 0 24.5312C0 28.4327 1.23 32.1437 3.55687 35.2631C5.48469 37.8477 8.01297 39.8319 10.9375 41.0711V74.5312C10.9375 75.3148 11.3291 76.0467 11.9812 76.4814L16.6688 79.6064C17.0667 79.8717 17.5187 80.0002 17.9675 80.0002C18.6422 80.0002 19.3088 79.7095 19.7694 79.1567L27.5819 69.7817C28.2463 68.9844 28.3072 67.8448 27.7316 66.9812L25.4731 63.5938L27.7314 60.2063C28.2563 59.4191 28.2563 58.3933 27.7314 57.6061L25 53.5091V42.4781C26.0405 42.5341 27.0812 42.5006 28.1175 42.3731L44.8477 71.3508C45.2395 72.0294 45.9445 72.4673 46.7264 72.5178L52.3486 72.8805C52.3998 72.8838 52.4505 72.8855 52.5013 72.8855C53.6331 72.8855 54.6139 72.0706 54.8092 70.9408L56.8875 58.9156C57.0642 57.8928 56.5472 56.8755 55.6167 56.4155L51.9673 54.6111L52.2294 50.5483C52.2903 49.6041 51.7773 48.7158 50.9294 48.2964L46.5155 46.1141L42.3781 38.9478C42.4036 38.9289 42.4297 38.9111 42.455 38.892L71.4342 55.6233C71.7959 55.8322 72.2006 55.9373 72.6061 55.9373C72.9611 55.9373 73.317 55.8567 73.6448 55.6945L78.6948 53.1975C79.7684 52.6664 80.2691 51.4114 79.8555 50.2872ZM20.7061 64.8938L22.8605 68.1252L17.5166 74.5378L15.625 73.2769V39.4388C15.625 38.415 14.9605 37.5095 13.9838 37.2027C8.42344 35.4559 4.6875 30.3636 4.6875 24.5312C4.6875 18.008 9.41625 12.572 15.625 11.4612V15.9375H14.8438C13.5494 15.9375 12.5 16.9869 12.5 18.2812C12.5 19.5756 13.5494 20.625 14.8438 20.625H21.0938C22.3881 20.625 23.4375 19.5756 23.4375 18.2812C23.4375 16.9869 22.3881 15.9375 21.0938 15.9375H20.3125V11.4612C26.5212 12.5719 31.25 18.008 31.25 24.5312C31.25 30.3636 27.5141 35.4559 21.9538 37.2027C20.977 37.5095 20.3125 38.4148 20.3125 39.4388V54.2188C20.3125 54.6814 20.4494 55.1338 20.7061 55.5188L22.9644 58.9062L20.7061 62.2937C20.1812 63.0809 20.1812 64.1066 20.7061 64.8938ZM42.8105 49.0722C43.0417 49.4728 43.3867 49.7962 43.8014 50.0013L47.4508 51.8056L47.1888 55.8683C47.1278 56.8125 47.6408 57.7008 48.4888 58.1202L51.97 59.8416L50.5484 68.067L48.2797 67.9206L31.3609 38.6159C31.1027 38.1688 30.713 37.8327 30.262 37.6375C31.0292 36.9156 31.7389 36.1234 32.3806 35.2631C34.7077 32.1437 35.9375 28.4327 35.9375 24.5312C35.9375 19.82 34.1141 15.5273 31.137 12.3194C33.7219 13.4209 35.9625 15.3361 37.4389 17.8933C40.3552 22.9442 39.6659 29.2222 35.7239 33.5152C35.0314 34.2694 34.9086 35.3856 35.4206 36.2723L42.8105 49.0722ZM72.6914 50.9364L43.3866 34.0173C42.7292 33.6378 41.9463 33.608 41.2777 33.8995C42.6214 31.7023 43.4761 29.2353 43.7841 26.6219C44.2323 22.8184 43.4714 19.0511 41.5881 15.7122C44.3733 18.835 45.565 23.1528 44.6145 27.4184C44.3917 28.4178 44.8436 29.4459 45.7303 29.9578L58.5302 37.3478C58.9309 37.5791 59.3912 37.6877 59.853 37.657L63.9158 37.395L65.7202 41.0444C66.1395 41.8923 67.0264 42.4061 67.972 42.3444L71.8475 42.0944L74.7292 49.9287L72.6914 50.9364Z"/>
</g>
<defs>
<clipPath id="clip0">
<rect width="80" height="80" fill="white"/>
</clipPath>
</defs>
</svg>
