<svg width="80" height="80" viewBox="0 0 80 80" fill="none" xmlns="http://www.w3.org/2000/svg">
<path d="M25.6734 20.5367V36.5372C25.6734 40.3133 27.5891 43.8183 30.6562 45.8708V51.7359C23.3975 51.7359 16.4666 53.2348 10.5414 57.6494C4.21281 62.3645 0.0765625 69.6844 0 77.6562V80H80V77.6562C80 70.6814 76.8973 64.1397 71.4023 59.2361C65.2073 53.7077 57.4688 51.7359 49.3438 51.7359V45.8566C52.4327 43.7997 54.2984 40.3623 54.2984 36.5702L54.2595 19.46C56.6312 17.3933 58.0156 14.3919 58.0156 11.2047L58.0162 0H47.0617C44.1362 0 41.385 1.23328 39.3162 3.30219C38.9725 3.64594 38.6545 4.01188 38.3606 4.39594C35.6597 3.80047 32.773 4.37328 30.3297 5.76562C27.7162 7.25594 25.8266 9.68109 25.0084 12.5945C24.2605 15.2581 24.5253 18.0555 25.6734 20.5367ZM51.1609 56.4234C54.8084 56.4234 58.2687 57.1431 61.37 58.4289L49.3438 65.5912V56.4234H51.1609ZM59.252 75.3125H49.3438V71.0472L54.6611 67.8803L59.252 71.162V75.3125ZM30.6562 71.0472V75.3125H20.748V71.1622L25.3391 67.8805L30.6562 71.0472ZM35.3438 47.6445C35.8408 47.7109 36.3455 47.7438 36.8469 47.7438H43.125C43.6362 47.7438 44.1495 47.7098 44.6562 47.6408V55.3281C44.6562 57.8956 42.5675 59.9844 40 59.9844C37.4325 59.9844 35.3438 57.8956 35.3438 55.3281V47.6445ZM35.3438 63.4237C36.7156 64.2159 38.3052 64.6719 40 64.6719C41.6948 64.6719 43.2842 64.2159 44.6562 63.4237V75.3125H35.3438V63.4237ZM49.5797 29.375H30.3258V21.4302L37.8352 17.1491C40.322 21.0141 45.1214 22.9147 49.5797 21.8656V29.375ZM47.0617 4.6875H53.3287L53.3281 11.0484C53.3281 14.5186 50.553 17.4662 47.048 17.47C44.327 17.4644 41.9378 15.7255 41.0991 13.1359C40.3634 10.8734 40.9483 8.29922 42.6308 6.61656C43.8144 5.43297 45.3884 4.6875 47.0617 4.6875ZM32.6511 9.83781C33.6716 9.25609 34.7931 8.96234 35.9175 8.96234C36.0566 8.96234 36.1956 8.96688 36.3345 8.97578C36.0838 10.187 36.0409 11.4433 36.2055 12.6694L29.3225 16.5863C28.9888 13.94 30.232 11.2173 32.6511 9.83781ZM30.3609 34.0625H49.6109C49.6109 35.6059 49.7652 37.2436 49.2489 38.7242C48.353 41.2944 45.8438 43.0563 43.125 43.0563H36.8469C33.3031 43.0563 30.3609 40.1125 30.3609 36.5703V34.0625ZM30.6562 56.4234V65.5912L18.6177 58.4216C22.493 56.8159 26.5067 56.4234 30.6562 56.4234ZM11.7184 62.733C12.3972 62.1272 13.1103 61.563 13.8528 61.0397L20.9419 65.2617L16.0605 68.7511V75.3125H4.90875C5.49687 70.575 7.86328 66.1748 11.7184 62.733ZM63.9395 75.3125V68.7509L59.0581 65.2616L66.1386 61.0447C71.0256 64.4791 74.37 69.5519 75.0902 75.3123H63.9395V75.3125Z" fill="#CCEDF9"/>
</svg>
