<svg width="80" height="80" viewBox="0 0 80 80" fill="none" xmlns="http://www.w3.org/2000/svg">
<path d="M25.9375 23.75H16.4062C15.1119 23.75 14.0625 24.7994 14.0625 26.0938V35.4688C14.0625 36.7631 15.1119 37.8125 16.4062 37.8125H25.9375C27.2319 37.8125 28.2812 36.7631 28.2812 35.4688V26.0938C28.2812 24.7994 27.2319 23.75 25.9375 23.75ZM23.5938 33.125H18.75V28.4375H23.5938V33.125Z" fill="#CCEDF9"/>
<path d="M44.6875 23.75H35.3125C34.0181 23.75 32.9688 24.7994 32.9688 26.0938V35.4688C32.9688 36.7631 34.0181 37.8125 35.3125 37.8125H44.6875C45.9819 37.8125 47.0312 36.7631 47.0312 35.4688V26.0938C47.0312 24.7994 45.9819 23.75 44.6875 23.75ZM42.3438 33.125H37.6562V28.4375H42.3438V33.125Z" fill="#CCEDF9"/>
<path d="M63.4375 23.75H54.0625C52.7681 23.75 51.7188 24.7994 51.7188 26.0938V35.4688C51.7188 36.7631 52.7681 37.8125 54.0625 37.8125H63.4375C64.7319 37.8125 65.7812 36.7631 65.7812 35.4688V26.0938C65.7812 24.7994 64.7319 23.75 63.4375 23.75ZM61.0938 33.125H56.4062V28.4375H61.0938V33.125Z" fill="#CCEDF9"/>
<path d="M25.9375 42.5H16.4062C15.1119 42.5 14.0625 43.5494 14.0625 44.8438V54.2188C14.0625 55.5131 15.1119 56.5625 16.4062 56.5625H25.9375C27.2319 56.5625 28.2812 55.5131 28.2812 54.2188V44.8438C28.2812 43.5494 27.2319 42.5 25.9375 42.5ZM23.5938 51.875H18.75V47.1875H23.5938V51.875Z" fill="#CCEDF9"/>
<path d="M44.6875 42.5H35.3125C34.0181 42.5 32.9688 43.5494 32.9688 44.8438V54.2188C32.9688 55.5131 34.0181 56.5625 35.3125 56.5625H44.6875C45.9819 56.5625 47.0312 55.5131 47.0312 54.2188V44.8438C47.0312 43.5494 45.9819 42.5 44.6875 42.5ZM42.3438 51.875H37.6562V47.1875H42.3438V51.875Z" fill="#CCEDF9"/>
<path d="M63.4375 42.5H54.0625C52.7681 42.5 51.7188 43.5494 51.7188 44.8438V54.2188C51.7188 55.5131 52.7681 56.5625 54.0625 56.5625H63.4375C64.7319 56.5625 65.7812 55.5131 65.7812 54.2188V44.8438C65.7812 43.5494 64.7319 42.5 63.4375 42.5ZM61.0938 51.875H56.4062V47.1875H61.0938V51.875Z" fill="#CCEDF9"/>
<path d="M80 63.5938C80 60.5383 78.0405 57.9331 75.3125 56.9656V19.0625H77.6562C78.5164 19.0625 79.3073 18.5914 79.717 17.8352C80.1267 17.0789 80.0892 16.1589 79.6194 15.4386L70.2444 1.06359C69.8117 0.4 69.0733 0 68.2812 0H11.7188C10.9267 0 10.1883 0.4 9.75562 1.06344L0.380625 15.4384C-0.0892187 16.1589 -0.126719 17.0787 0.282969 17.835C0.692656 18.5914 1.48359 19.0625 2.34375 19.0625H4.6875V56.9656C1.95953 57.9331 0 60.5383 0 63.5938C0 64.6778 0.247031 65.7055 0.687187 66.6234C0.262656 67.0475 0 67.6338 0 68.2812V77.6562C0 78.9506 1.04937 80 2.34375 80C3.53984 80 76.4075 80 77.6562 80C78.9506 80 80 78.9506 80 77.6562V68.2812C80 67.6338 79.7373 67.0475 79.3128 66.6234C79.753 65.7055 80 64.6778 80 63.5938ZM12.9883 4.6875H67.0116L73.3295 14.375H72.9688C72.4955 14.375 7.53297 14.375 6.67047 14.375L12.9883 4.6875ZM7.03125 61.25C8.32359 61.25 9.375 62.3014 9.375 63.5938C9.375 64.8861 8.32359 65.9375 7.03125 65.9375C5.73891 65.9375 4.6875 64.8861 4.6875 63.5938C4.6875 62.3014 5.73891 61.25 7.03125 61.25ZM23.5938 75.3125C22.9175 75.3125 5.38281 75.3125 4.6875 75.3125V70.625H23.5938V75.3125ZM42.3438 75.3125H37.6562V65.9375H42.3438V75.3125ZM51.7188 68.2812V75.3125H47.0312V63.5938C47.0312 62.2994 45.9819 61.25 44.6875 61.25H35.3125C34.0181 61.25 32.9688 62.2994 32.9688 63.5938V75.3125H28.2812V68.2812C28.2812 66.9869 27.2319 65.9375 25.9375 65.9375H13.6594C13.9195 65.2039 14.0625 64.4153 14.0625 63.5938C14.0625 60.5383 12.103 57.9331 9.375 56.9656V19.0625C9.86797 19.0625 70.0209 19.0625 70.625 19.0625V56.9656C67.897 57.9331 65.9375 60.5383 65.9375 63.5938C65.9375 64.4153 66.0805 65.2039 66.3406 65.9375H54.0625C52.7681 65.9375 51.7188 66.9869 51.7188 68.2812ZM75.3125 75.3125C74.6172 75.3125 57.0823 75.3125 56.4062 75.3125V70.625H75.3125V75.3125ZM72.9688 65.9375C71.6764 65.9375 70.625 64.8861 70.625 63.5938C70.625 62.3014 71.6764 61.25 72.9688 61.25C74.2611 61.25 75.3125 62.3014 75.3125 63.5938C75.3125 64.8861 74.2611 65.9375 72.9688 65.9375Z" fill="#CCEDF9"/>
</svg>
