<svg width="80" height="80" viewBox="0 0 80 80" fill="none" xmlns="http://www.w3.org/2000/svg">
<g clip-path="url(#clip0)">
<path d="M78.9563 59.6089C78.4589 59.2773 63.6674 49.4144 63.0971 49.0339C62.3254 48.5195 61.2944 48.5019 60.4965 49.0339L58.2334 50.543L41.5503 45.9152V39.7324C44.7223 36.821 46.714 32.6432 46.714 28.0085V2.34472C46.714 1.05035 45.6647 0.000976562 44.3703 0.000976562H24.0119C18.9451 0.000976562 14.8821 4.2608 14.8821 9.28703V28.0085C14.8821 32.6432 16.874 36.821 20.0459 39.7325V45.9191L1.71249 51.0458C0.699997 51.3289 0 52.2515 0 53.303V77.6569C0 78.9513 1.04937 80.0006 2.34374 80.0006H73.6911C74.9855 80.0006 76.0349 78.9513 76.0349 77.6569V63.2949L76.3556 63.5088C77.4325 64.2268 78.8877 63.936 79.6059 62.8592C80.3241 61.7821 80.0331 60.3268 78.9563 59.6089ZM53.0814 53.9783L44.6372 59.6089C43.5601 60.327 43.2694 61.7821 43.9875 62.859C44.7075 63.9388 46.1633 64.2251 47.2378 63.5088L47.5586 63.2949V75.3132H40.1089L38.6553 66.1702C40.8536 52.9803 40.2155 56.9822 41.1405 50.6659L53.0814 53.9783ZM34.2952 63.8176H27.3007L26.2543 57.5396H35.3414L34.2952 63.8176ZM27.3158 68.5051H34.28L35.3624 75.3132H26.2335L27.3158 68.5051ZM24.0119 4.68846H42.0264V12.4195H19.5696V9.28703C19.5696 6.79423 21.604 4.68846 24.0119 4.68846ZM19.5696 17.107H42.0264V28.0084C42.0264 31.5766 40.3514 34.759 37.7486 36.8171C33.7436 39.9977 27.9705 40.0911 23.8441 36.8144C21.2432 34.7561 19.5696 31.5749 19.5696 28.0084V17.107ZM36.8627 42.7225V47.5264L36.0827 52.8522H25.5132L24.7333 47.5264V42.7225C28.6054 44.3244 32.9847 44.3269 36.8627 42.7225ZM4.68748 55.0812L20.4563 50.6716C21.3562 56.8161 20.818 53.435 22.9407 66.1702L21.4871 75.3132H4.68748V55.0812ZM71.3474 75.3132H64.1404V71.4069C64.1404 70.1126 63.091 69.0632 61.7966 69.0632C60.5023 69.0632 59.4529 70.1126 59.4529 71.4069V75.3132H52.2459V60.1698L61.7966 53.8011L71.3474 60.1698V75.3132Z" fill="#CCEDF9"/>
</g>
<defs>
<clipPath id="clip0">
<rect width="80" height="80" fill="white"/>
</clipPath>
</defs>
</svg>
