<svg width="80" height="80" viewBox="0 0 80 80" fill="none" xmlns="http://www.w3.org/2000/svg">
<path d="M11.0691 70L12.6397 71.4179L14.2103 70C14.3212 69.8998 16.9568 67.5094 19.6181 64.1487C23.3655 59.4167 25.2658 55.1866 25.2658 51.5759C25.2658 44.6139 19.6017 38.9499 12.6397 38.9499C5.67774 38.9499 0.0136719 44.6138 0.0136719 51.5759C0.0136719 55.1866 1.91378 59.4168 5.66133 64.1487C8.32251 67.5094 10.9582 69.8998 11.0691 70ZM4.70104 51.5759C4.70104 47.1986 8.26235 43.6372 12.6397 43.6372C17.0171 43.6372 20.5784 47.1984 20.5784 51.5759C20.5784 55.9344 15.7584 61.8018 12.6397 64.9974C9.52091 61.8018 4.70104 55.9343 4.70104 51.5759Z" fill="#38A8FF"/>
<path d="M16.3448 51.5759C16.3448 49.5338 14.6833 47.8723 12.6411 47.8723C10.599 47.8723 8.9375 49.5338 8.9375 51.5759C8.9375 53.6181 10.599 55.2796 12.6411 55.2796C14.6833 55.2796 16.3448 53.6181 16.3448 51.5759Z" fill="#38A8FF"/>
<path d="M59.6092 50.4541H45.9889C41.7429 50.4541 38.2888 46.9998 38.2888 42.754C38.2888 38.5082 41.7429 35.0539 45.9889 35.0539H60.4131C60.999 35.6181 61.7935 35.9671 62.6691 35.9671C64.465 35.9671 65.926 34.5061 65.926 32.7102C65.926 30.9143 64.465 29.4532 62.6691 29.4532C61.7935 29.4532 60.999 29.8023 60.4131 30.3665H45.9889C39.1583 30.3665 33.6014 35.9234 33.6014 42.754C33.6014 49.5846 39.1583 55.1415 45.9889 55.1415H59.6092C64.9184 55.1415 69.238 59.461 69.238 64.7704C69.238 70.0798 64.9184 74.3992 59.6092 74.3992H14.8977C14.3118 73.835 13.5173 73.486 12.6417 73.486C10.8458 73.486 9.38477 74.947 9.38477 76.7429C9.38477 78.5388 10.8458 79.9998 12.6417 79.9998C13.5173 79.9998 14.3118 79.6508 14.8977 79.0866H59.6092C67.503 79.0866 73.9253 72.6642 73.9253 64.7702C73.9253 56.8764 67.503 50.4541 59.6092 50.4541Z" fill="#CCEDF9"/>
<path d="M79.9842 0H60.3242V27.1085H65.0116V15.1649H79.9842L76.2632 7.58245L79.9842 0ZM72.4623 10.4775H65.0116V4.68737H72.4625L71.0417 7.58245L72.4623 10.4775Z" fill="#38A8FF"/>
</svg>
