<svg width="200" height="313" viewBox="0 0 200 313" fill="none" xmlns="http://www.w3.org/2000/svg">
<rect x="129" y="168.219" width="25" height="36.2125" rx="5" fill="#ECFBFF"/>
<rect x="129" y="134.076" width="25" height="25.8661" rx="5" fill="#ECFBFF"/>
<rect x="129" y="110.279" width="25" height="15.5196" rx="5" fill="#ECFBFF"/>
<rect x="129" y="96.8291" width="25" height="5.1732" rx="2.5866" fill="#ECFBFF"/>
<path d="M44 10C44 4.47715 48.4772 0 54 0H146C151.523 0 156 4.47715 156 10V184H44V10Z" fill="white"/>
<rect x="119" y="83.3788" width="25" height="36.2125" rx="5" fill="#ECFBFF"/>
<rect x="119" y="49.2356" width="25" height="25.8661" rx="5" fill="#ECFBFF"/>
<rect x="119" y="25.4388" width="25" height="15.5196" rx="5" fill="#ECFBFF"/>
<rect x="119" y="11.9885" width="25" height="5.1732" rx="2.5866" fill="#ECFBFF"/>
<path d="M153.125 122.375V175.5C153.125 177.158 152.467 178.747 151.294 179.919C150.122 181.092 148.533 181.75 146.875 181.75H53.125C51.4674 181.75 49.8777 181.092 48.7056 179.919C47.5335 178.747 46.875 177.158 46.875 175.5V122.375H21.875C18.5598 122.375 15.3804 123.692 13.0362 126.036C10.692 128.38 9.375 131.56 9.375 134.875V291.125C9.375 294.44 10.692 297.62 13.0362 299.964C15.3804 302.308 18.5598 303.625 21.875 303.625H28.125V222.375C28.125 219.06 29.442 215.88 31.7862 213.536C34.1304 211.192 37.3098 209.875 40.625 209.875H159.375C162.69 209.875 165.87 211.192 168.214 213.536C170.558 215.88 171.875 219.06 171.875 222.375V303.625H178.125C181.44 303.625 184.62 302.308 186.964 299.964C189.308 297.62 190.625 294.44 190.625 291.125V147.375L165.625 122.375H153.125Z" fill="#9BC9FF"/>
<path d="M121.875 134.875H140.625V169.25H121.875V134.875Z" fill="#9BC9FF"/>
<path d="M192.834 145.166L167.834 120.166C167.248 119.58 166.454 119.25 165.625 119.25H21.875C17.7325 119.255 13.7611 120.903 10.8319 123.832C7.90276 126.761 6.25496 130.733 6.25 134.875V291.125C6.25496 295.267 7.90276 299.239 10.8319 302.168C13.7611 305.097 17.7325 306.745 21.875 306.75H178.125C182.267 306.745 186.239 305.097 189.168 302.168C192.097 299.239 193.745 295.267 193.75 291.125V147.375C193.75 146.546 193.42 145.752 192.834 145.166ZM150 125.5V175.5C150 176.329 149.671 177.124 149.085 177.71C148.499 178.296 147.704 178.625 146.875 178.625H53.125C52.2962 178.625 51.5013 178.296 50.9153 177.71C50.3292 177.124 50 176.329 50 175.5V125.5H150ZM31.25 300.5V222.375C31.25 219.889 32.2377 217.504 33.9959 215.746C35.754 213.988 38.1386 213 40.625 213H159.375C161.861 213 164.246 213.988 166.004 215.746C167.762 217.504 168.75 219.889 168.75 222.375V300.5H31.25ZM187.5 291.125C187.5 293.611 186.512 295.996 184.754 297.754C182.996 299.512 180.611 300.5 178.125 300.5H175V222.375C174.995 218.233 173.347 214.261 170.418 211.332C167.489 208.403 163.517 206.755 159.375 206.75H40.625C36.4825 206.755 32.5111 208.403 29.5819 211.332C26.6528 214.261 25.005 218.233 25 222.375V300.5H21.875C19.3886 300.5 17.004 299.512 15.2459 297.754C13.4877 295.996 12.5 293.611 12.5 291.125V134.875C12.5 132.389 13.4877 130.004 15.2459 128.246C17.004 126.488 19.3886 125.5 21.875 125.5H43.75V175.5C43.75 177.986 44.7377 180.371 46.4959 182.129C48.254 183.887 50.6386 184.875 53.125 184.875H146.875C149.361 184.875 151.746 183.887 153.504 182.129C155.262 180.371 156.25 177.986 156.25 175.5V125.5H164.331L187.5 148.669V291.125Z" fill="#1E81CE"/>
<path d="M121.875 172.375H140.625C141.454 172.375 142.249 172.046 142.835 171.46C143.421 170.874 143.75 170.079 143.75 169.25V134.875C143.75 134.046 143.421 133.251 142.835 132.665C142.249 132.079 141.454 131.75 140.625 131.75H121.875C121.046 131.75 120.251 132.079 119.665 132.665C119.079 133.251 118.75 134.046 118.75 134.875V169.25C118.75 170.079 119.079 170.874 119.665 171.46C120.251 172.046 121.046 172.375 121.875 172.375ZM125 138H137.5V166.125H125V138Z" fill="#1E81CE"/>
<path d="M146.875 253.625H53.125C52.2962 253.625 51.5013 253.954 50.9153 254.54C50.3292 255.126 50 255.921 50 256.75C50 257.579 50.3292 258.374 50.9153 258.96C51.5013 259.546 52.2962 259.875 53.125 259.875H146.875C147.704 259.875 148.499 259.546 149.085 258.96C149.671 258.374 150 257.579 150 256.75C150 255.921 149.671 255.126 149.085 254.54C148.499 253.954 147.704 253.625 146.875 253.625Z" fill="#1E81CE"/>
<path d="M146.875 234.875H53.125C52.2962 234.875 51.5013 235.204 50.9153 235.79C50.3292 236.376 50 237.171 50 238C50 238.829 50.3292 239.624 50.9153 240.21C51.5013 240.796 52.2962 241.125 53.125 241.125H146.875C147.704 241.125 148.499 240.796 149.085 240.21C149.671 239.624 150 238.829 150 238C150 237.171 149.671 236.376 149.085 235.79C148.499 235.204 147.704 234.875 146.875 234.875Z" fill="#1E81CE"/>
<path d="M146.875 272.375H53.125C52.2962 272.375 51.5013 272.704 50.9153 273.29C50.3292 273.876 50 274.671 50 275.5C50 276.329 50.3292 277.124 50.9153 277.71C51.5013 278.296 52.2962 278.625 53.125 278.625H146.875C147.704 278.625 148.499 278.296 149.085 277.71C149.671 277.124 150 276.329 150 275.5C150 274.671 149.671 273.876 149.085 273.29C148.499 272.704 147.704 272.375 146.875 272.375Z" fill="#1E81CE"/>
</svg>
