<svg width="80" height="80" viewBox="0 0 80 80" fill="none" xmlns="http://www.w3.org/2000/svg">
<g clip-path="url(#clip0)">
<path d="M77.6506 75.3131H70.6205V41.7895C73.3595 42.7581 76.4072 41.9466 78.302 39.7381C80.8231 36.7958 80.5006 32.3622 77.5355 29.8214L44.5753 1.7039C41.9244 -0.567502 38.0759 -0.567502 35.4287 1.70062L2.46094 29.8248C-0.483752 32.3481 -0.836721 36.7798 1.69984 39.7403C3.64078 42.0003 6.72187 42.7212 9.37968 41.7872V75.3133H2.34937C1.05515 75.3133 0.00593558 76.3625 0.00593558 77.6567C0.00593558 78.9509 1.05515 80 2.34937 80C5.07531 80 74.6636 80 77.6506 80C78.9448 80 79.9941 78.9508 79.9941 77.6566C79.9941 76.3623 78.945 75.3131 77.6506 75.3131ZM8.56453 36.94C7.58125 37.78 6.09687 37.6666 5.25719 36.6887C4.40297 35.6917 4.54187 34.2137 5.50672 33.3872L38.4742 5.26312C39.3584 4.50547 40.6419 4.50562 41.5297 5.2664L74.4898 33.3839C75.4745 34.2276 75.5848 35.7064 74.7442 36.6875C73.9195 37.6487 72.445 37.8053 71.4341 36.9384C70.2469 35.9261 43.7628 13.3428 41.5206 11.4311C40.6445 10.6842 39.3558 10.6841 38.4795 11.4311C36.2856 13.3019 9.46156 36.175 8.56453 36.94ZM32.9698 75.3131H23.5962V51.723H32.9698V75.3131ZM65.9337 75.3131H37.6566V49.3795C37.6566 48.0853 36.6073 47.0361 35.3131 47.0361H21.2527C19.9584 47.0361 18.9092 48.0853 18.9092 49.3795V75.3131H14.0664V38.4077L40 16.2937L65.9336 38.4077V75.3131H65.9337Z" fill="#CCEDF9"/>
<path d="M58.7472 47.0361H44.6867C43.3925 47.0361 42.3433 48.0853 42.3433 49.3795V63.44C42.3433 64.7342 43.3925 65.7834 44.6867 65.7834H58.7472C60.0414 65.7834 61.0906 64.7342 61.0906 63.44V49.3795C61.0906 48.0853 60.0416 47.0361 58.7472 47.0361ZM56.4039 61.0966H47.0303V51.723H56.4039V61.0966Z" fill="#CCEDF9"/>
<path d="M40 23.4459C36.1236 23.4459 32.9698 26.5997 32.9698 30.4761C32.9698 34.3525 36.1236 37.5062 40 37.5062C43.8764 37.5062 47.0302 34.3525 47.0302 30.4761C47.0302 26.5997 43.8766 23.4459 40 23.4459ZM40 32.8195C38.7078 32.8195 37.6566 31.7683 37.6566 30.4761C37.6566 29.1839 38.7078 28.1327 40 28.1327C41.2922 28.1327 42.3434 29.1839 42.3434 30.4761C42.3434 31.7683 41.2922 32.8195 40 32.8195Z" fill="#CCEDF9"/>
</g>
<defs>
<clipPath id="clip0">
<rect width="80" height="80" fill="white"/>
</clipPath>
</defs>
</svg>
