<svg width="16" height="16" viewBox="0 0 16 16" fill="none" xmlns="http://www.w3.org/2000/svg">
<path d="M15.4756 3.03111L12.9689 0.524445C12.8035 0.358073 12.6068 0.226079 12.3902 0.136069C12.1736 0.0460593 11.9413 -0.000185326 11.7067 5.5816e-07H1.77778C1.30628 5.5816e-07 0.854097 0.187302 0.520699 0.5207C0.187301 0.854098 0 1.30628 0 1.77778V14.2222C0 14.6937 0.187301 15.1459 0.520699 15.4793C0.854097 15.8127 1.30628 16 1.77778 16H14.2222C14.6937 16 15.1459 15.8127 15.4793 15.4793C15.8127 15.1459 16 14.6937 16 14.2222V4.29333C16.0002 4.05875 15.9539 3.82644 15.8639 3.60981C15.7739 3.39317 15.6419 3.1965 15.4756 3.03111ZM5.33333 3.11111V1.77778H10.6667V3.11111C10.6667 3.22899 10.6198 3.34203 10.5365 3.42538C10.4531 3.50873 10.3401 3.55556 10.2222 3.55556H5.77778C5.6599 3.55556 5.54686 3.50873 5.46351 3.42538C5.38016 3.34203 5.33333 3.22899 5.33333 3.11111ZM12.4444 14.2222H3.55556V7.55556C3.55556 7.43768 3.60238 7.32464 3.68573 7.24129C3.76908 7.15794 3.88213 7.11111 4 7.11111H12C12.1179 7.11111 12.2309 7.15794 12.3143 7.24129C12.3976 7.32464 12.4444 7.43768 12.4444 7.55556V14.2222ZM10.2222 10.6667H5.77778C5.6599 10.6667 5.54686 10.7135 5.46351 10.7968C5.38016 10.8802 5.33333 10.9932 5.33333 11.1111V12C5.33333 12.1179 5.38016 12.2309 5.46351 12.3143C5.54686 12.3976 5.6599 12.4444 5.77778 12.4444H10.2222C10.3401 12.4444 10.4531 12.3976 10.5365 12.3143C10.6198 12.2309 10.6667 12.1179 10.6667 12V11.1111C10.6667 10.9932 10.6198 10.8802 10.5365 10.7968C10.4531 10.7135 10.3401 10.6667 10.2222 10.6667Z" fill="#CCEDF9"/>
</svg>
